<svg version="1.1" xmlns="http://www.w3.org/2000/svg" xmlns:xlink="http://www.w3.org/1999/xlink" x="0px" y="0px"
	 viewBox="0 0 913 200" style="enable-background:new 0 0 913 200;" xml:space="preserve">

<path fill="#00C951" d="M12.5,37.6v112.3h37.9l-12.9,24.8l51.7-24.8h98.5V37.6H12.5z M179.7,141.9H87.4l-31.7,15.2l7.9-15.2H20.5V45.6
	h159.2L179.7,141.9z"/>
<path fill="#00C951" d="M35.6,93.8c0,8,6.5,14.5,14.5,14.5s14.5-6.5,14.5-14.5s-6.5-14.5-14.5-14.5S35.6,85.7,35.6,93.8z"/>
<path fill="#00C951" d="M85.5,93.8c0,8,6.5,14.5,14.5,14.5s14.5-6.5,14.5-14.5S108,79.2,100,79.2S85.5,85.7,85.5,93.8L85.5,93.8z"/>
<path fill="#00C951" d="M135.3,93.8c0,8,6.5,14.5,14.5,14.5c8,0,14.5-6.5,14.5-14.5s-6.5-14.5-14.5-14.5
	C141.8,79.2,135.3,85.7,135.3,93.8L135.3,93.8z"/>
<g>
	<path fill="#515151" d="M215,59.4V125h42.1v7.2h-50.4V59.4H215z"/>
	<path fill="#515151" d="M273.8,79.5v32.2c0,5,1,8.8,3.2,11.2c2.1,2.4,5.6,3.8,10.4,3.8c3.5,0,6.6-1.4,9.4-4.1c2.9-2.9,4.6-6.5,5.2-11
		V79.5h8.2v52.7H302v-8.2c-4.3,6.3-10,9.6-17.1,9.6c-12.9,0-19.2-7.2-19.2-21.5V79.5H273.8z"/>
	<path fill="#515151" d="M362.4,88.1c2-3.5,4.5-6,7.3-7.5c2.5-1.6,5.6-2.4,9.3-2.4c5.5,0,9.9,1.7,13.4,5.2c3.3,3.6,5,8.4,5,14.4v34.6
		h-8.2V99c0-4.7-1-8.2-3-10.4c-2-2.4-5.3-3.6-9.8-3.6c-3.5,0-6.4,1.2-8.7,3.9c-2.4,2.7-3.6,6-3.6,10.3v33H356V99
		c0-9.4-4.1-14-12.1-14c-3.8,0-6.8,1.4-9.3,4.5c-2.4,2.9-3.7,6.4-3.7,10.6v32.1h-8.2V79.5h8.2v7c4-5.7,9-8.5,14.9-8.5
		C353.9,78.1,359.4,81.4,362.4,88.1z"/>
	<path fill="#515151" d="M421.1,61.4c1.2,1,1.8,2.4,1.8,4.3c0,1.7-0.6,3.2-1.8,4.4c-1.2,1.1-2.7,1.7-4.4,1.7s-3.2-0.6-4.4-1.7
		c-1.2-1.2-1.7-2.7-1.7-4.4c0-1.8,0.5-3.3,1.7-4.3c1.2-1.2,2.7-1.7,4.4-1.7S419.9,60.2,421.1,61.4z M420.8,79.5v52.7h-8.2V79.5
		H420.8z"/>
	<path fill="#515151" d="M480.5,99.8v32.4h-8.2v-31.8c0-10.3-4.7-15.4-13.9-15.4c-3.7,0-6.8,1.3-9.5,4c-2.9,2.9-4.4,6.6-4.7,11.4v31.8
		h-8.2V79.5h8.2v7.8c1.8-3,4.2-5.2,7-6.7c2.9-1.6,6-2.4,9.5-2.4C473.8,78.1,480.5,85.3,480.5,99.8z"/>
	<path fill="#515151" d="M535.5,86.3c4.5,5.2,6.7,11.7,6.7,19.7c0,7.9-2.2,14.4-6.6,19.5c-4.8,5.5-11.1,8.3-19,8.3
		c-8,0-14.2-2.8-18.9-8.3c-4.5-5.1-6.7-11.6-6.7-19.5c0-8,2.2-14.5,6.7-19.7c4.7-5.5,10.9-8.2,18.9-8.2
		C524.5,78.1,530.8,80.8,535.5,86.3z M503.6,91.4c-2.9,3.9-4.2,8.7-4.2,14.6c0,5.8,1.3,10.6,4.2,14.5c3.1,4.3,7.4,6.4,13.1,6.4
		c5.5,0,9.9-2.1,13.2-6.4c2.8-3.9,4.2-8.8,4.2-14.5c0-5.9-1.4-10.7-4.2-14.6c-3.3-4.3-7.6-6.4-13.2-6.4
		C511.1,84.9,506.7,87.1,503.6,91.4z"/>
	<path fill="#515151" d="M561,79.5v32.2c0,5,1,8.8,3.2,11.2c2.1,2.4,5.6,3.8,10.4,3.8c3.5,0,6.6-1.4,9.4-4.1c2.9-2.9,4.6-6.5,5.2-11
		V79.5h8.2v52.7h-8.2v-8.2c-4.3,6.3-10,9.6-17.1,9.6c-12.9,0-19.2-7.2-19.2-21.5V79.5H561z"/>
	<path fill="#515151" d="M650.3,94.5h-8c-0.7-3.3-2-5.7-4.1-7.1c-2.2-1.6-5.5-2.4-9.7-2.4c-3.7,0-6.5,0.6-8.6,2
		c-2.2,1.3-3.4,3.2-3.4,5.5c0,2.2,1.4,4.2,4.5,5.7c1.9,0.9,5.6,2,10.9,3.5c6.3,1.5,10.8,3.2,13.6,4.9c4.2,2.7,6.3,6.2,6.3,10.8
		c0,10.8-7.4,16.3-22.3,16.3c-13.9,0-21.4-6.1-22.6-18.3h8c0.6,4.2,2.1,7.1,4.4,9c2.2,1.6,5.6,2.4,10.1,2.4c9.4,0,14.2-3.1,14.2-9
		c0-3-1.7-5.2-5-6.8c-1.7-0.8-5.5-1.9-11.2-3.4c-6.2-1.5-10.6-3.1-13.1-4.7c-4.1-2.4-6-5.8-6-10.3c0-4.5,1.9-8,5.9-10.6
		c3.7-2.7,8.6-4,14.5-4C641.7,78.1,648.8,83.5,650.3,94.5z"/>
	<path fill="#515151" d="M740.3,63.6c4.9,3.9,7.6,9.7,8.4,17.3h-8.3c-0.9-5.3-3-9.2-6.1-11.7c-3.3-2.7-7.9-3.9-13.8-3.9
		c-5.4,0-9.6,0.8-12.6,2.7c-3.5,2-5.2,5.1-5.2,9.3c0,3.7,2,6.6,6.2,8.9c1.8,1,6.3,2.5,13.4,4.6c9.6,2.9,15.9,5.2,19,7
		c6,3.7,9.1,8.8,9.1,15.4c0,6.3-2.5,11.4-7.6,15.1c-5.1,3.6-11.9,5.4-20.6,5.4c-8.6,0-15.3-1.8-20.2-5.5c-5.7-4.4-8.9-11-9.5-20h8.3
		c0.7,6.3,3,11,6.6,14c3.4,2.7,8.3,4.1,14.8,4.1c5.9,0,10.8-1.1,14.5-3.4c3.7-2.2,5.5-5.3,5.5-9.2c0-4.6-2.4-8.2-7.2-10.7
		c-2-1.2-7.2-3-15.4-5.3c-8.8-2.7-14.4-4.7-16.7-5.9c-5.6-3.3-8.4-8-8.4-14.1c0-6.3,2.7-11.3,8.1-14.8c4.8-3.3,11-4.9,18.6-4.9
		C729.1,58,735.6,59.8,740.3,63.6z"/>
	<path fill="#515151" d="M771.3,59.4l27.1,62.1h0.3l27-62.1h10.4v72.8h-8.4V74.3h-0.3l-25.2,57.9h-7.5l-25.2-57.9h-0.3v57.9h-8.4V59.4
		H771.3z"/>
	<path fill="#515151" d="M894.7,63.6c4.9,3.9,7.6,9.7,8.4,17.3h-8.3c-0.9-5.3-3-9.2-6.1-11.7c-3.3-2.7-7.9-3.9-13.8-3.9
		c-5.4,0-9.6,0.8-12.6,2.7c-3.5,2-5.2,5.1-5.2,9.3c0,3.7,2,6.6,6.2,8.9c1.8,1,6.3,2.5,13.4,4.6c9.6,2.9,15.9,5.2,19,7
		c6,3.7,9.1,8.8,9.1,15.4c0,6.3-2.5,11.4-7.6,15.1c-5.1,3.6-11.9,5.4-20.6,5.4c-8.6,0-15.3-1.8-20.2-5.5c-5.7-4.4-8.9-11-9.5-20h8.3
		c0.7,6.3,3,11,6.6,14c3.4,2.7,8.3,4.1,14.8,4.1c5.9,0,10.8-1.1,14.5-3.4c3.7-2.2,5.5-5.3,5.5-9.2c0-4.6-2.4-8.2-7.2-10.7
		c-2-1.2-7.2-3-15.4-5.3c-8.8-2.7-14.4-4.7-16.7-5.9c-5.6-3.3-8.4-8-8.4-14.1c0-6.3,2.7-11.3,8.1-14.8c4.8-3.3,11-4.9,18.6-4.9
		C883.5,58,890.1,59.8,894.7,63.6z"/>
</g>
</svg>
